# xmcd
#
# Track frame offsets:
#	150
#	7367
#	20515
#	25289
#	45538
#	47796
#	52542
#	67827
#	71889
#	78789
#	88340
#	96333
#	117433
#	134014
#	163073
#	260089
#	276904
#	301337
#
# Disc length: 4802 seconds
#
# Revision: 1
# Processed by: cddbd v1.5.2PL0 Copyright (c) Steve Scherf et al.
# Submitted via: audiograbber 1.83.01
#
DISCID=0212c012
DTITLE=Various Composers - Pictures From Russia - Three Organ Transcriptions (H
DTITLE=ansjörg Albrecht)
DYEAR=2008
DGENRE=Classical
TTITLE0=Modest Mussorgsky - Pictures Of An Exhibition - Promenade
TTITLE1=Modest Mussorgsky - Pictures Of An Exhibition - Gnomus (The Gnome)
TTITLE2=Modest Mussorgsky - Pictures Of An Exhibition - Promenade
TTITLE3=Modest Mussorgsky - Pictures Of An Exhibition - Il vecchio castello (Th
TTITLE3=e Old Castle)
TTITLE4=Modest Mussorgsky - Pictures Of An Exhibition - Promenade
TTITLE5=Modest Mussorgsky - Pictures Of An Exhibition - Tuileries - Dispute d'e
TTITLE5=nfants après jeux (Tuileries - Dispute Between Children At Play)
TTITLE6=Modest Mussorgsky - Pictures Of An Exhibition - Bydlo (Cattle)
TTITLE7=Modest Mussorgsky - Pictures Of An Exhibition - Promenade
TTITLE8=Modest Mussorgsky - Pictures Of An Exhibition - Ballet der Küken in ihr
TTITLE8=en Eierschalen (Ballet Of The Unhatched Chicks)
TTITLE9=Modest Mussorgsky - Pictures Of An Exhibition - Samuel Goldenberg und S
TTITLE9=chmuyle
TTITLE10=Modest Mussorgsky - Pictures Of An Exhibition - Limoges. Le marché (Th
TTITLE10=e Market At Limoges)
TTITLE11=Modest Mussorgsky - Pictures Of An Exhibition - Catacombae - Cum morti
TTITLE11=s in lingua mortua (The Catacombs - With The Dead In A Dead Language)
TTITLE12=Modest Mussorgsky - Pictures Of An Exhibition - Die Hütte der Baba-Yag
TTITLE12=a (The Hut Of Baba-Yaga)
TTITLE13=Modest Mussorgsky - Pictures Of An Exhibition - Das große Tor von Kiew
TTITLE13=(The Great Gate Of Kiev)
TTITLE14=Sergei Rachmaninov - Die Toteninsel, Tondichtung op. 29
TTITLE15=Igor Stravinsky - "Petrouchka" - Danse russe (Russian Dance)
TTITLE16=Igor Stravinsky - "Petrouchka" - Chez Pétrouchka (Petrushka's Cell)
TTITLE17=Igor Stravinsky - "Petrouchka" - La semaine grasse (The Shrove-Tide)
EXTD=
EXTT0=
EXTT1=
EXTT2=
EXTT3=
EXTT4=
EXTT5=
EXTT6=
EXTT7=
EXTT8=
EXTT9=
EXTT10=
EXTT11=
EXTT12=
EXTT13=
EXTT14=
EXTT15=
EXTT16=
EXTT17=
PLAYORDER=
